<?xml version="1.0" encoding="UTF-8" standalone="no"?>
<!-- Created with Inkscape (http://www.inkscape.org/) -->

<svg
   xmlns:dc="http://purl.org/dc/elements/1.1/"
   xmlns:cc="http://creativecommons.org/ns#"
   xmlns:rdf="http://www.w3.org/1999/02/22-rdf-syntax-ns#"
   xmlns:svg="http://www.w3.org/2000/svg"
   xmlns="http://www.w3.org/2000/svg"
   xmlns:sodipodi="http://sodipodi.sourceforge.net/DTD/sodipodi-0.dtd"
   xmlns:inkscape="http://www.inkscape.org/namespaces/inkscape"
   width="188.8331mm"
   height="160.21574mm"
   viewBox="0 0 188.8331 160.21574"
   version="1.1"
   id="svg8"
   inkscape:version="0.92.4 (5da689c313, 2019-01-14)"
   sodipodi:docname="favicon.svg">
  <defs
     id="defs2">
    <pattern
       inkscape:stockid="Stripes 1:1"
       id="Strips1_1"
       patternTransform="translate(0,0) scale(10,10)"
       height="1"
       width="2"
       patternUnits="userSpaceOnUse"
       inkscape:collect="always">
      <rect
         id="rect5254"
         height="2"
         width="1"
         y="-0.5"
         x="0"
         style="fill:black;stroke:none" />
    </pattern>
    <filter
       inkscape:collect="always"
       style="color-interpolation-filters:sRGB"
       id="filter5976"
       x="-0.011070577"
       width="1.0221412"
       y="-0.013099783"
       height="1.0261996">
      <feGaussianBlur
         inkscape:collect="always"
         stdDeviation="3.2208"
         id="feGaussianBlur5978" />
    </filter>
  </defs>
  <sodipodi:namedview
     id="base"
     pagecolor="#ffffff"
     bordercolor="#666666"
     borderopacity="1.0"
     inkscape:pageopacity="0.0"
     inkscape:pageshadow="2"
     inkscape:zoom="0.64"
     inkscape:cx="427.69978"
     inkscape:cy="270.15879"
     inkscape:document-units="mm"
     inkscape:current-layer="layer1"
     showgrid="false"
     inkscape:snap-text-baseline="true"
     inkscape:window-width="1920"
     inkscape:window-height="1017"
     inkscape:window-x="1912"
     inkscape:window-y="-8"
     inkscape:window-maximized="1" />
  <metadata
     id="metadata5">
    <rdf:RDF>
      <cc:Work
         rdf:about="">
        <dc:format>image/svg+xml</dc:format>
        <dc:type
           rdf:resource="http://purl.org/dc/dcmitype/StillImage" />
        <dc:title></dc:title>
      </cc:Work>
    </rdf:RDF>
  </metadata>
  <g
     inkscape:label="Layer 1"
     inkscape:groupmode="layer"
     id="layer1"
     transform="translate(-5.5176378,-52.804655)">
    <flowRoot
       xml:space="preserve"
       id="flowRoot10"
       style="font-style:normal;font-variant:normal;font-weight:normal;font-stretch:normal;font-size:40px;line-height:1.25;font-family:Arial;-inkscape-font-specification:Arial;letter-spacing:0px;word-spacing:0px;fill:url(#Strips1_1);fill-opacity:1;stroke:none;stroke-width:0.37795275;stroke-miterlimit:4;stroke-dasharray:none;filter:url(#filter5976)"
       transform="scale(0.26458333)"><flowRegion
         id="flowRegion12"
         style="fill:url(#Strips1_1);fill-opacity:1;stroke-width:0.37795275;stroke-miterlimit:4;stroke-dasharray:none"><rect
           id="rect14"
           width="749.92444"
           height="960.1051"
           x="28.584564"
           y="64.890785"
           style="fill:url(#Strips1_1);fill-opacity:1;stroke-width:0.37795275;stroke-miterlimit:4;stroke-dasharray:none" /></flowRegion><flowPara
         id="flowPara16"
         style="font-style:normal;font-variant:normal;font-weight:normal;font-stretch:normal;font-size:800px;font-family:'Euphoria Script';-inkscape-font-specification:'Euphoria Script, Normal';font-variant-ligatures:normal;font-variant-caps:normal;font-variant-numeric:normal;font-feature-settings:normal;text-align:start;writing-mode:lr-tb;text-anchor:start;opacity:1;fill:#ffffff;fill-opacity:1;fill-rule:nonzero;stroke-width:0.37795275;stroke-miterlimit:4;stroke-dasharray:none;paint-order:markers fill stroke">A</flowPara></flowRoot>    <path
       style="fill:#000000;stroke-width:1.681445"
       d="M 146.46711,795.18621 C 94.132202,787.83655 56.317381,756.0599 38.44761,704.415 24.884962,665.218 27.508148,615.84845 45.442489,572.76824 c 18.365684,-44.11636 57.700831,-74.59055 97.228061,-75.3257 13.31972,-0.24772 19.39449,2.15784 23.91334,9.4695 5.31304,8.59667 4.48178,10.2632 -5.71721,11.4619 -24.74894,2.90875 -47.67591,15.38798 -67.46694,36.72249 -23.75558,25.60826 -35.311932,53.36197 -39.544249,94.9694 -5.553845,54.59922 12.383151,94.25775 51.229449,113.26781 51.01065,24.96289 107.34774,13.96197 160.44641,-31.33029 0.34332,-0.29286 -2.51539,-4.47564 -6.35269,-9.29508 -16.02307,-20.12412 -22.02864,-39.65996 -23.19812,-75.4624 -1.02534,-31.38943 1.44435,-48.23939 11.50443,-78.49156 26.46956,-79.59789 79.23685,-134.65649 145.75772,-152.08694 20.37964,-5.34007 49.29989,-5.98971 70.57731,-1.5854 9.52426,1.97146 17.94223,3.19796 18.70662,2.72556 0.76438,-0.47242 4.65388,-6.3583 8.64335,-13.07976 10.71949,-18.06018 45.09151,-69.12933 56.61137,-84.11183 15.8339,-20.59325 43.72497,-51.0647 59.10902,-64.57753 32.55881,-28.59862 65.42721,-44.4438 97.82616,-47.16001 21.72616,-1.82144 24.54666,1.41589 16.57771,19.0276 -10.87603,24.03642 -28.75117,70.97149 -39.19366,102.91147 -34.07443,104.22184 -64.11469,272.76962 -67.73691,380.05346 -1.17115,34.68742 -1.84788,37.26164 -9.79573,37.26164 -2.17498,0 -6.27006,-1.9484 -9.10018,-4.3298 -8.34634,-7.02298 -10.35316,-16.88189 -12.01297,-59.01606 -2.42273,-61.50126 -8.04914,-97.1656 -22.10365,-140.10898 -13.23694,-40.44536 -31.45258,-68.89203 -57.09244,-89.15919 -4.65017,-3.67574 -9.47283,-6.68317 -10.71699,-6.68317 -1.24782,0 -10.71903,16.39856 -21.12235,36.57142 -71.55759,138.75597 -104.38762,191.2203 -148.24278,236.90087 -13.26122,13.81319 -13.32211,13.91734 -8.80092,15.05208 2.50397,0.62846 12.60248,0.72951 22.4411,0.22456 36.15381,-1.85553 63.65536,-15.56993 87.6429,-43.70552 18.14903,-21.28746 27.25096,-38.16007 40.77267,-75.58192 1.94784,-5.39068 7.43718,-7.68491 10.60516,-4.43234 1.83752,1.88658 1.27778,5.02133 -3.28099,18.37498 -17.8943,52.41646 -54.58311,95.56533 -95.2112,111.97573 -21.03706,8.49725 -51.01808,11.42315 -72.61244,7.08638 l -9.33777,-1.87528 -9.0182,6.64625 c -23.15153,17.06231 -49.25915,29.38821 -75.88643,35.82744 -16.04624,3.88043 -48.95061,5.54338 -65.02334,3.28619 z m 146.43303,-88.6694 c 21.72725,-22.46639 53.93962,-65.29767 79.98432,-106.3514 20.20786,-31.85324 96.84103,-161.4564 95.97799,-162.31943 -1.98176,-1.98177 -20.26924,-4.14362 -35.05168,-4.14362 -30.17215,0 -56.82625,7.77603 -81.5099,23.77958 -16.42824,10.65118 -47.60156,41.53649 -58.30922,57.7705 -25.44448,38.57667 -38.84307,83.09276 -38.96871,129.47127 -0.0684,25.26663 2.11975,37.3063 9.85113,54.20215 4.14621,9.06095 12.12571,20.62215 14.23332,20.62215 0.65467,0 6.8614,-5.86404 13.79275,-13.0312 z M 594.25598,539.21303 c 15.07535,-124.40093 48.36885,-241.9359 84.58469,-298.60658 l 5.73725,-8.97769 -5.20412,1.14302 c -15.23757,3.34673 -38.57302,15.58341 -56.3464,29.54702 -31.5925,24.82057 -71.52204,77.93019 -109.15465,145.18473 -6.07264,10.85264 -11.04116,20.02887 -11.04116,20.39161 0,0.36275 3.97242,3.21553 8.82759,6.33948 22.12131,14.23353 41.61193,37.75002 55.87259,67.4133 8.27541,17.21351 21.05352,53.00592 21.05352,58.97245 0,1.40429 0.62259,2.55325 1.38353,2.55325 0.76095,0 2.69017,-10.78226 4.28716,-23.96059 z"
       id="path26"
       inkscape:connector-curvature="0"
       transform="scale(0.26458333)" />
    <path
       style="fill:#000000;stroke-width:1.681445"
       d="m 146.46711,795.06685 c -34.50195,-4.46493 -66.70905,-22.38923 -85.386359,-47.52036 -9.795093,-13.1797 -22.849601,-40.5671 -26.529158,-55.6562 -8.024242,-32.90574 -5.894743,-69.85842 6.157976,-106.85788 11.53741,-35.41755 35.424967,-64.35847 64.460281,-78.09668 14.70844,-6.95938 24.3597,-9.29807 39.31025,-9.52566 12.7953,-0.19476 16.91826,1.61081 22.29336,9.76291 5.36691,8.13969 4.26772,10.03658 -6.53628,11.27976 -40.22604,4.62868 -79.653002,39.29041 -96.169263,84.54604 -7.390527,20.25052 -10.642758,40.16744 -10.65715,65.26516 -0.0208,36.26715 7.484906,56.95568 28.079466,77.39758 21.207757,21.05055 44.135287,29.70135 79.167307,29.87064 22.14411,0.10694 33.36597,-2.15264 53.79591,-10.83241 10.70531,-4.54819 38.04694,-21.72835 47.60768,-29.91437 l 3.8798,-3.32193 -6.95657,-8.80072 c -9.05428,-11.45452 -14.17247,-21.7431 -18.85633,-37.90496 -3.39711,-11.72188 -3.79368,-16.6494 -3.69563,-45.91912 0.10475,-31.24673 0.35571,-33.69723 5.33993,-52.1248 17.33102,-64.07601 52.848,-116.934 98.33917,-146.35287 42.6771,-27.59902 85.75703,-34.64459 137.67427,-22.51616 4.04009,0.94381 5.14115,-0.19368 14.20927,-14.67955 16.4646,-26.30142 45.14599,-68.76302 55.70358,-82.46691 15.36761,-19.94736 43.71074,-51.10877 57.70112,-63.43863 33.65153,-29.65741 66.42765,-45.62402 99.31678,-48.38133 13.43399,-1.12625 19.49555,0.10905 20.80676,4.24029 0.54706,1.72363 -2.03477,9.9154 -5.96067,18.91234 -32.53891,74.56905 -54.18886,145.29675 -73.57012,240.34457 -18.42988,90.38217 -29.36451,173.32488 -31.66313,240.17509 -1.13098,32.89203 -1.8689,35.58188 -9.76143,35.58188 -2.17498,0 -6.27006,-1.9484 -9.10018,-4.3298 -8.28778,-6.97369 -10.33956,-16.92924 -12.02878,-58.36508 -2.85613,-70.06034 -11.01396,-114.62176 -29.23156,-159.67484 -9.15423,-22.63884 -20.22103,-40.51097 -34.37799,-55.51812 -10.33707,-10.95782 -23.34252,-21.40936 -26.64093,-21.40936 -0.80887,0 -10.05176,16.45714 -20.53974,36.57142 -75.13453,144.09609 -103.22051,189.09358 -146.6885,235.01449 -8.05187,8.50627 -12.91429,14.93302 -12.18767,16.10872 1.69925,2.74943 37.38032,0.89893 50.21707,-2.60436 36.21863,-9.88449 66.90267,-38.09123 88.13183,-81.01641 3.59863,-7.27642 8.22294,-18.3487 10.27622,-24.60507 4.92807,-15.01591 10.1165,-19.99796 14.85781,-14.26682 2.44466,2.95502 -7.06058,30.25345 -17.28891,49.6526 -22.5967,42.85714 -54.02457,71.85113 -90.80988,83.77729 -16.51196,5.35333 -44.10995,7.22986 -61.25842,4.16525 l -11.38006,-2.03374 -13.28339,9.53077 c -40.38038,28.97269 -89.94579,41.99659 -136.76774,35.93734 z m 148.57615,-91.07221 c 30.69118,-33.16181 66.01121,-83.26046 106.39281,-150.90969 49.50346,-82.93061 68.02103,-114.64434 67.33885,-115.32651 -2.52,-2.52 -23.45342,-4.30895 -41.60835,-3.55583 -33.89366,1.406 -60.87352,11.43957 -87.02613,32.36425 -49.8027,39.84708 -78.08247,93.44881 -84.52054,160.20096 -2.23223,23.14461 -0.34885,45.67513 5.18674,62.04805 3.68359,10.89511 15.45717,30.73214 18.24001,30.73214 0.88111,0 8.07958,-6.99902 15.99661,-15.55337 z M 594.41395,537.11123 c 15.08199,-123.63304 50.0131,-245.59785 85.35849,-298.03613 2.64922,-3.93037 4.14222,-7.14614 3.31778,-7.14614 -3.2027,0 -20.21447,6.52065 -30.61755,11.73577 -24.03981,12.05128 -44.82608,29.7879 -68.02441,58.0442 -25.48906,31.0465 -59.72386,83.56517 -77.96771,119.60818 l -3.51858,6.95138 8.7624,5.83895 c 22.66154,15.10087 41.63796,38.06695 55.8074,67.54048 8.48954,17.65892 21.05352,53.05221 21.05352,59.30874 0,1.75206 0.58201,2.26073 1.47849,1.29217 0.81318,-0.87855 2.77076,-12.19048 4.35017,-25.1376 z"
       id="path28"
       inkscape:connector-curvature="0"
       transform="scale(0.26458333)" />
  </g>
</svg>
